<?xml version="1.0" encoding="UTF-8" standalone="no"?>
<!DOCTYPE svg PUBLIC "-//W3C//DTD SVG 1.1//EN"
 "http://www.w3.org/Graphics/SVG/1.1/DTD/svg11.dtd">
<!-- Generated by graphviz version 2.38.0 (20140413.2041)
 -->
<!-- Title: controllers_diagram Pages: 1 -->
<svg width="470pt" height="353pt"
 viewBox="0.00 0.00 470.27 353.00" xmlns="http://www.w3.org/2000/svg" xmlns:xlink="http://www.w3.org/1999/xlink">
<g id="graph0" class="graph" transform="scale(1 1) rotate(0) translate(99.8208 237.5)">
<title>controllers_diagram</title>
<polygon fill="none" stroke="none" points="-99.8208,115.5 -99.8208,-237.5 370.45,-237.5 370.45,115.5 -99.8208,115.5"/>
<!-- _diagram_info -->
<g id="node1" class="node"><title>_diagram_info</title>
<text text-anchor="start" x="167.55" y="-219.1" font-family="Times,serif" font-size="13.00">Controllers diagram</text>
<text text-anchor="start" x="167.55" y="-206.1" font-family="Times,serif" font-size="13.00">Date: Nov 04 2016 &#45; 20:12</text>
<text text-anchor="start" x="167.55" y="-193.1" font-family="Times,serif" font-size="13.00">Migration version: 20161104225421</text>
<text text-anchor="start" x="167.55" y="-180.1" font-family="Times,serif" font-size="13.00">Generated by RailRoady 1.5.2</text>
<text text-anchor="start" x="167.55" y="-167.1" font-family="Times,serif" font-size="13.00">http://railroady.prestonlee.com</text>
</g>
<!-- ApplicationController -->
<g id="node2" class="node"><title>ApplicationController</title>
<path fill="none" stroke="black" d="M-83.8208,-129C-83.8208,-129 31.8208,-129 31.8208,-129 37.8208,-129 43.8208,-135 43.8208,-141 43.8208,-141 43.8208,-209 43.8208,-209 43.8208,-215 37.8208,-221 31.8208,-221 31.8208,-221 -83.8208,-221 -83.8208,-221 -89.8208,-221 -95.8208,-215 -95.8208,-209 -95.8208,-209 -95.8208,-141 -95.8208,-141 -95.8208,-135 -89.8208,-129 -83.8208,-129"/>
<text text-anchor="middle" x="-26" y="-205.8" font-family="Times,serif" font-size="14.00">ApplicationController</text>
<polyline fill="none" stroke="black" points="-95.8208,-199 43.8208,-199 "/>
<polyline fill="none" stroke="black" points="-95.8208,-175 43.8208,-175 "/>
<polyline fill="none" stroke="black" points="-95.8208,-151 43.8208,-151 "/>
<text text-anchor="start" x="-87.8208" y="-135.8" font-family="Times,serif" font-size="14.00">_layout</text>
</g>
<!-- MoviesController -->
<g id="node3" class="node"><title>MoviesController</title>
<path fill="none" stroke="black" d="M-51.7725,111C-51.7725,111 39.7725,111 39.7725,111 45.7725,111 51.7725,105 51.7725,99 51.7725,99 51.7725,-79 51.7725,-79 51.7725,-85 45.7725,-91 39.7725,-91 39.7725,-91 -51.7725,-91 -51.7725,-91 -57.7725,-91 -63.7725,-85 -63.7725,-79 -63.7725,-79 -63.7725,99 -63.7725,99 -63.7725,105 -57.7725,111 -51.7725,111"/>
<text text-anchor="middle" x="-6" y="-75.8" font-family="Times,serif" font-size="14.00">MoviesController</text>
<polyline fill="none" stroke="black" points="-63.7725,-69 51.7725,-69 "/>
<text text-anchor="start" x="-55.7725" y="-53.8" font-family="Times,serif" font-size="14.00">index</text>
<text text-anchor="start" x="-55.7725" y="-39.8" font-family="Times,serif" font-size="14.00">destroy</text>
<text text-anchor="start" x="-55.7725" y="-25.8" font-family="Times,serif" font-size="14.00">edit</text>
<text text-anchor="start" x="-55.7725" y="-11.8" font-family="Times,serif" font-size="14.00">create</text>
<text text-anchor="start" x="-55.7725" y="2.2" font-family="Times,serif" font-size="14.00">new</text>
<text text-anchor="start" x="-55.7725" y="16.2" font-family="Times,serif" font-size="14.00">show</text>
<text text-anchor="start" x="-55.7725" y="30.2" font-family="Times,serif" font-size="14.00">update</text>
<polyline fill="none" stroke="black" points="-63.7725,37 51.7725,37 "/>
<polyline fill="none" stroke="black" points="-63.7725,61 51.7725,61 "/>
<text text-anchor="start" x="-55.7725" y="76.2" font-family="Times,serif" font-size="14.00">_layout</text>
<text text-anchor="start" x="-55.7725" y="90.2" font-family="Times,serif" font-size="14.00">movie_params</text>
<text text-anchor="start" x="-55.7725" y="104.2" font-family="Times,serif" font-size="14.00">set_movie</text>
</g>
<!-- TagsController -->
<g id="node4" class="node"><title>TagsController</title>
<path fill="none" stroke="black" d="M92.1094,79C92.1094,79 167.891,79 167.891,79 173.891,79 179.891,73 179.891,67 179.891,67 179.891,-111 179.891,-111 179.891,-117 173.891,-123 167.891,-123 167.891,-123 92.1094,-123 92.1094,-123 86.1094,-123 80.1094,-117 80.1094,-111 80.1094,-111 80.1094,67 80.1094,67 80.1094,73 86.1094,79 92.1094,79"/>
<text text-anchor="middle" x="130" y="-107.8" font-family="Times,serif" font-size="14.00">TagsController</text>
<polyline fill="none" stroke="black" points="80.1094,-101 179.891,-101 "/>
<text text-anchor="start" x="88.1094" y="-85.8" font-family="Times,serif" font-size="14.00">index</text>
<text text-anchor="start" x="88.1094" y="-71.8" font-family="Times,serif" font-size="14.00">destroy</text>
<text text-anchor="start" x="88.1094" y="-57.8" font-family="Times,serif" font-size="14.00">edit</text>
<text text-anchor="start" x="88.1094" y="-43.8" font-family="Times,serif" font-size="14.00">create</text>
<text text-anchor="start" x="88.1094" y="-29.8" font-family="Times,serif" font-size="14.00">new</text>
<text text-anchor="start" x="88.1094" y="-15.8" font-family="Times,serif" font-size="14.00">show</text>
<text text-anchor="start" x="88.1094" y="-1.8" font-family="Times,serif" font-size="14.00">update</text>
<polyline fill="none" stroke="black" points="80.1094,5 179.891,5 "/>
<polyline fill="none" stroke="black" points="80.1094,29 179.891,29 "/>
<text text-anchor="start" x="88.1094" y="44.2" font-family="Times,serif" font-size="14.00">_layout</text>
<text text-anchor="start" x="88.1094" y="58.2" font-family="Times,serif" font-size="14.00">set_tag</text>
<text text-anchor="start" x="88.1094" y="72.2" font-family="Times,serif" font-size="14.00">tag_params</text>
</g>
</g>
</svg>
