<?xml version="1.0" encoding="UTF-8" standalone="no"?>
<!DOCTYPE svg PUBLIC "-//W3C//DTD SVG 1.1//EN"
 "http://www.w3.org/Graphics/SVG/1.1/DTD/svg11.dtd">
<!-- Generated by graphviz version 2.38.0 (20140413.2041)
 -->
<!-- Title: models_diagram Pages: 1 -->
<svg width="473pt" height="153pt"
 viewBox="0.00 0.00 472.65 153.00" xmlns="http://www.w3.org/2000/svg" xmlns:xlink="http://www.w3.org/1999/xlink">
<g id="graph0" class="graph" transform="scale(1 1) rotate(0) translate(4 149)">
<title>models_diagram</title>
<polygon fill="none" stroke="none" points="-4,4 -4,-149 468.645,-149 468.645,4 -4,4"/>
<!-- _diagram_info -->
<g id="node1" class="node"><title>_diagram_info</title>
<text text-anchor="start" x="8" y="-130.6" font-family="Times,serif" font-size="13.00">Models diagram</text>
<text text-anchor="start" x="8" y="-117.6" font-family="Times,serif" font-size="13.00">Date: Nov 04 2016 &#45; 20:12</text>
<text text-anchor="start" x="8" y="-104.6" font-family="Times,serif" font-size="13.00">Migration version: 20161104225421</text>
<text text-anchor="start" x="8" y="-91.6" font-family="Times,serif" font-size="13.00">Generated by RailRoady 1.5.2</text>
<text text-anchor="start" x="8" y="-78.6" font-family="Times,serif" font-size="13.00">http://railroady.prestonlee.com</text>
</g>
<!-- ApplicationRecord -->
<g id="node2" class="node"><title>ApplicationRecord</title>
<ellipse fill="none" stroke="black" cx="302.45" cy="-108.5" rx="77.2916" ry="18"/>
<text text-anchor="middle" x="302.45" y="-104.3" font-family="Times,serif" font-size="14.00">ApplicationRecord</text>
</g>
<!-- Movie -->
<g id="node3" class="node"><title>Movie</title>
<ellipse fill="none" stroke="black" cx="431.45" cy="-108.5" rx="33.3925" ry="18"/>
<text text-anchor="middle" x="431.45" y="-104.3" font-family="Times,serif" font-size="14.00">Movie</text>
</g>
<!-- Tag -->
<g id="node4" class="node"><title>Tag</title>
<ellipse fill="none" stroke="black" cx="431.45" cy="-18" rx="27" ry="18"/>
<text text-anchor="middle" x="431.45" y="-13.8" font-family="Times,serif" font-size="14.00">Tag</text>
</g>
<!-- Movie&#45;&gt;Tag -->
<g id="edge1" class="edge"><title>Movie&#45;&gt;Tag</title>
<path fill="none" stroke="#dce585" d="M431.45,-80.0918C431.45,-69.2891 431.45,-56.9123 431.45,-46.1362"/>
<polygon fill="#dce585" stroke="#dce585" points="431.45,-80.4363 426.95,-90.4363 431.45,-85.4363 431.45,-90.4363 431.45,-90.4363 431.45,-90.4363 431.45,-85.4363 435.95,-90.4364 431.45,-80.4363 431.45,-80.4363"/>
<polygon fill="#dce585" stroke="#dce585" points="431.45,-46.0113 435.95,-36.0113 431.45,-41.0113 431.45,-36.0113 431.45,-36.0113 431.45,-36.0113 431.45,-41.0113 426.95,-36.0113 431.45,-46.0113 431.45,-46.0113"/>
</g>
</g>
</svg>
