<?xml version="1.0" encoding="UTF-8" standalone="no"?>
<!DOCTYPE svg PUBLIC "-//W3C//DTD SVG 1.1//EN"
 "http://www.w3.org/Graphics/SVG/1.1/DTD/svg11.dtd">
<!-- Generated by graphviz version 2.38.0 (20140413.2041)
 -->
<!-- Title: models_diagram Pages: 1 -->
<svg width="653pt" height="218pt"
 viewBox="0.00 0.00 653.31 218.00" xmlns="http://www.w3.org/2000/svg" xmlns:xlink="http://www.w3.org/1999/xlink">
<g id="graph0" class="graph" transform="scale(1 1) rotate(0) translate(4 214)">
<title>models_diagram</title>
<polygon fill="none" stroke="none" points="-4,4 -4,-214 649.312,-214 649.312,4 -4,4"/>
<!-- _diagram_info -->
<g id="node1" class="node"><title>_diagram_info</title>
<text text-anchor="start" x="8" y="-188.6" font-family="Times,serif" font-size="13.00">Models diagram</text>
<text text-anchor="start" x="8" y="-175.6" font-family="Times,serif" font-size="13.00">Date: Nov 04 2016 &#45; 20:12</text>
<text text-anchor="start" x="8" y="-162.6" font-family="Times,serif" font-size="13.00">Migration version: 20161104225421</text>
<text text-anchor="start" x="8" y="-149.6" font-family="Times,serif" font-size="13.00">Generated by RailRoady 1.5.2</text>
<text text-anchor="start" x="8" y="-136.6" font-family="Times,serif" font-size="13.00">http://railroady.prestonlee.com</text>
</g>
<!-- ApplicationRecord -->
<g id="node2" class="node"><title>ApplicationRecord</title>
<ellipse fill="none" stroke="black" cx="302.45" cy="-166.5" rx="77.2916" ry="18"/>
<text text-anchor="middle" x="302.45" y="-162.3" font-family="Times,serif" font-size="14.00">ApplicationRecord</text>
</g>
<!-- Movie -->
<g id="node3" class="node"><title>Movie</title>
<path fill="none" stroke="black" d="M409.587,-123.5C409.587,-123.5 633.312,-123.5 633.312,-123.5 639.312,-123.5 645.312,-129.5 645.312,-135.5 645.312,-135.5 645.312,-197.5 645.312,-197.5 645.312,-203.5 639.312,-209.5 633.312,-209.5 633.312,-209.5 409.587,-209.5 409.587,-209.5 403.587,-209.5 397.587,-203.5 397.587,-197.5 397.587,-197.5 397.587,-135.5 397.587,-135.5 397.587,-129.5 403.587,-123.5 409.587,-123.5"/>
<text text-anchor="middle" x="521.45" y="-194.3" font-family="Times,serif" font-size="14.00">Movie</text>
<polyline fill="none" stroke="black" points="397.587,-187.5 645.312,-187.5 "/>
<text text-anchor="start" x="405.587" y="-172.3" font-family="Times,serif" font-size="14.00">id :integer</text>
<text text-anchor="start" x="405.587" y="-158.3" font-family="Times,serif" font-size="14.00">name :character varying</text>
<text text-anchor="start" x="405.587" y="-144.3" font-family="Times,serif" font-size="14.00">created_at :timestamp without time zone</text>
<text text-anchor="start" x="405.587" y="-130.3" font-family="Times,serif" font-size="14.00">updated_at :timestamp without time zone</text>
</g>
<!-- Tag -->
<g id="node4" class="node"><title>Tag</title>
<path fill="none" stroke="black" d="M409.587,-0.5C409.587,-0.5 633.312,-0.5 633.312,-0.5 639.312,-0.5 645.312,-6.5 645.312,-12.5 645.312,-12.5 645.312,-74.5 645.312,-74.5 645.312,-80.5 639.312,-86.5 633.312,-86.5 633.312,-86.5 409.587,-86.5 409.587,-86.5 403.587,-86.5 397.587,-80.5 397.587,-74.5 397.587,-74.5 397.587,-12.5 397.587,-12.5 397.587,-6.5 403.587,-0.5 409.587,-0.5"/>
<text text-anchor="middle" x="521.45" y="-71.3" font-family="Times,serif" font-size="14.00">Tag</text>
<polyline fill="none" stroke="black" points="397.587,-64.5 645.312,-64.5 "/>
<text text-anchor="start" x="405.587" y="-49.3" font-family="Times,serif" font-size="14.00">id :integer</text>
<text text-anchor="start" x="405.587" y="-35.3" font-family="Times,serif" font-size="14.00">name :character varying</text>
<text text-anchor="start" x="405.587" y="-21.3" font-family="Times,serif" font-size="14.00">created_at :timestamp without time zone</text>
<text text-anchor="start" x="405.587" y="-7.3" font-family="Times,serif" font-size="14.00">updated_at :timestamp without time zone</text>
</g>
<!-- Movie&#45;&gt;Tag -->
<g id="edge1" class="edge"><title>Movie&#45;&gt;Tag</title>
<path fill="none" stroke="#18f29b" d="M521.45,-112.977C521.45,-107.602 521.45,-102.141 521.45,-96.7688"/>
<polygon fill="#18f29b" stroke="#18f29b" points="521.45,-113.18 516.95,-123.18 521.45,-118.18 521.45,-123.18 521.45,-123.18 521.45,-123.18 521.45,-118.18 525.95,-123.18 521.45,-113.18 521.45,-113.18"/>
<polygon fill="#18f29b" stroke="#18f29b" points="521.45,-96.5917 525.95,-86.5917 521.45,-91.5917 521.45,-86.5917 521.45,-86.5917 521.45,-86.5917 521.45,-91.5917 516.95,-86.5918 521.45,-96.5917 521.45,-96.5917"/>
</g>
</g>
</svg>
